<?xml version="1.0" encoding="UTF-8"?>
<svg id="Calque_1" data-name="Calque 1" xmlns="http://www.w3.org/2000/svg" viewBox="0 0 1024 1024.65">
  <defs>
    <style>
      .cls-1 {
        fill: #beab93;
      }

      .cls-2 {
        fill: #010101;
      }

      .cls-3 {
        fill: #ebe6d6;
      }

      .cls-4 {
        fill: #030302;
      }

      .cls-5 {
        fill: #ede4d4;
      }

      .cls-6 {
        fill: #ede2d0;
      }

      .cls-7 {
        fill: #ebe5d6;
      }

      .cls-8 {
        fill: #0d0b09;
      }

      .cls-9 {
        fill: #ece5d6;
      }

      .cls-10 {
        fill: #020201;
      }

      .cls-11 {
        fill: #c0b19b;
      }

      .cls-12 {
        fill: #0c0a08;
      }

      .cls-13 {
        fill: #0f0d0b;
      }

      .cls-14 {
        fill: #eee2d1;
      }

      .cls-15 {
        fill: #7f5237;
      }

      .cls-16 {
        fill: #bc8a64;
      }

      .cls-17 {
        fill: #c1b39d;
      }

      .cls-18 {
        fill: #efe4d2;
      }

      .cls-19 {
        fill: #c1b39c;
      }

      .cls-20 {
        fill: #583621;
      }
    </style>
  </defs>
  <path class="cls-20" d="M803.11,1024l-582.28.65c-67.07.07-129.6-37.96-170.49-88.13C14.73,892.82-.07,840.56,0,785.29L.74,223.77C.86,133.6,60.01,52.16,141.9,17.75,175.83,3.5,208.49-.02,244.56,0l552.13.32c120.81.07,226.47,103.33,226.62,225.78l.69,563.04c.15,121.46-95.02,234.73-220.89,234.87Z"/>
  <path class="cls-14" d="M511.07,152.68c-9.61,30.49,17.63,48.79,6.54,57.4-2.42,1.88-8.91,3.43-12-.79-18.68-25.49-18.25-59.02-.27-84.37,36.91-52.02-4.2-61.14,3.4-74.24,2.11-3.64,8.87-5.96,12.52-2.42,20.31,19.69,21.67,48.56,7.28,72.51-6.22,10.35-13.65,19.78-17.48,31.92Z"/>
  <path class="cls-6" d="M577.78,210.71c-5.21-4.22-7.38-10.25-10.08-16.12-9.89-21.5-5.38-44.13,9.69-61.91,25.83-30.45-10.8-47.66,4.38-54.91,3.5-1.67,8.7-1.52,11.75,2.29,14.54,18.18,13.27,43.56-1.94,61.96-29.52,35.71,7.44,58.35-1.39,68.33-3.13,3.54-8.17,3.78-12.41.35Z"/>
  <path class="cls-18" d="M453.87,142.3c-31.05,37.11,11.13,60.92-6.89,69.88-5.88,2.92-10.31-1.3-13.26-6.68-13.82-25.22-11.36-52.78,7.17-74.62,22.11-26.07-8.19-42.06-.24-51.68,2.69-3.25,8.48-4.39,12.15-.51,17.13,18.08,17.03,44.55,1.08,63.61Z"/>
  <g>
    <path class="cls-2" d="M680.67,908.78l11.84-86.68c7.61-1.3,11.2-6.05,11.85-13.3l33.52-248.46c1.38-10.21-4.42-14.77-13.23-17.56l13.57-101.55c7.76-.63,13.24-1.28,21-.62,8.06.68,20.98-6.79,18.07-16.82-7.2-24.83-15.21-48.53-24.43-72.94-3.26-8.62-15.64-6.36-23.81-5.95l-28.21-75.68c-2.34-6.28-5.88-10.39-13.26-10.39h-352.08c-5.04,0-9.2,2.21-10.85,6.67l-29.1,78.65c-7.26,3.53-23.09-4.08-27.64,10.38l-20.58,65.39c-1.78,5.66-1.19,10.69,1.71,14.27,9.44,11.66,21.36,3.79,37.12,7.16l12.69,101.58c-3.97,1.3-14.03,3.89-13.19,10.23l33.65,252.07c-.58,8.89,3.24,15.22,12.29,17.13l11.31,86.62c.87,4.19,1.83,21.3,1.73,23.23,0,0,1.04,41.71,25.37,41.74l289.09.32c6.14,0,12.9-6.58,13.59-10.4l5.7-31.61,2.3-23.47Z"/>
    <polygon class="cls-16" points="431.48 798 410.01 566.97 713.58 566.65 682.7 798.37 431.48 798"/>
    <polygon class="cls-9" points="710.72 465.2 700.65 543.91 409.53 543.57 401.66 465.37 710.72 465.2"/>
    <path class="cls-3" d="M665.66,849.08l-13.92,102.65-200.1-.69c-.31-4.95-5.04-8.67-5.58-14.56l-8.37-91.73,226.2.3c.76,1.87-.51,4.14,1.76,4.04Z"/>
    <polygon class="cls-15" points="410.01 566.97 431.48 798 341.59 798.12 310.59 566.32 410.01 566.97"/>
    <path class="cls-7" d="M409.54,343.98c2.09-21.1,9.2-41.31,14.62-61.84l256.64-.52,23.86,63.51-295.12-1.15Z"/>
    <path class="cls-17" d="M710.72,465.2l-309.06.17,7.88,78.2-86.98.09-12.97-103.19,404.22.24c.71,9.76-2.14,17.1-3.09,24.49Z"/>
    <path class="cls-19" d="M665.66,849.08c-2.27.11-1-2.17-1.76-4.04l-226.2-.3,8.37,91.73c.54,5.9,5.27,9.62,5.58,14.56l-79.37.05-17.21-129.13,313.97-.05c-.73,10.21-2.22,18.71-3.37,27.17Z"/>
    <path class="cls-11" d="M424.16,282.14c-5.42,20.53-12.54,40.74-14.62,61.84l-89.11,1.23,22.32-63.5,81.41.43Z"/>
    <path class="cls-12" d="M384.16,390.86c5.89,1.6,30.53-3.71,27.69,4.77-.35,1.05-1.68,3.29-3.93,3.37l-23.65.88c-8.68.32-17.57-1.38-27.33-1.03-2.89.1-4.29-3.08-3.76-4.78,1.78-5.72,23.67-1.17,30.99-3.22Z"/>
    <g>
      <path class="cls-5" d="M386.25,416.36l-1.99-16.47,23.65-.88c2.25-.08,3.58-2.33,3.93-3.37,2.84-8.48-21.8-3.17-27.69-4.77-.39-7.24-1.2-14.59-.34-21.78l350.52-1.23c6.71,16.48,12.26,32.35,16.59,49.59l-364.68-1.08Z"/>
      <path class="cls-8" d="M464.36,393.66c3.31,8.1-26.65,5.04-36.51,5.2-2.34.04-3.8-2.13-4.13-3.34-.54-1.94,1.08-4.57,4.06-4.57l32.56-.03c1.97,0,3.57,1.64,4.02,2.75Z"/>
      <path class="cls-13" d="M477.38,391.35c2.56-1.77,5.24-1,7.35,1.26,1.22,1.3,1.65,3.98-1.08,6.16-1.35,1.08-3.43,1.35-5.83-.19-2.4-1.54-3.95-4.82-.44-7.23Z"/>
    </g>
    <g>
      <path class="cls-1" d="M383.82,369.08c-.86,7.19-.04,14.54.34,21.78-7.32,2.04-29.21-2.5-30.99,3.22-.53,1.7.86,4.88,3.76,4.78,9.76-.35,18.65,1.35,27.33,1.03l1.99,16.47-113.68.8,15.47-48.29c32.57-2.7,64.28.33,95.79.22Z"/>
      <path class="cls-4" d="M318.47,394.01c.57,7.6-19.14,5.26-21.38,3.18-1.2-1.12-.52-3.57.55-4.67,2.22-2.28,20.51-2.22,20.84,1.49Z"/>
      <path class="cls-10" d="M339.85,394.21c1.12,7.73-17.38,6.28-17.48.5.26-4.8,16.72-5.73,17.48-.5Z"/>
    </g>
  </g>
</svg>